<svg xmlns="http://www.w3.org/2000/svg" xmlns:xlink="http://www.w3.org/1999/xlink" width="150" zoomAndPan="magnify" viewBox="0 0 112.5 30.000001" height="40" preserveAspectRatio="xMidYMid meet" version="1.0"><defs><g/><clipPath id="d12ace2829"><path d="M 1 0.179688 L 13 0.179688 L 13 20 L 1 20 Z M 1 0.179688 " clip-rule="nonzero"/></clipPath><clipPath id="e4da38af43"><path d="M 10 0.179688 L 18 0.179688 L 18 17 L 10 17 Z M 10 0.179688 " clip-rule="nonzero"/></clipPath><clipPath id="fb53985109"><path d="M 35 7 L 41 7 L 41 23.871094 L 35 23.871094 Z M 35 7 " clip-rule="nonzero"/></clipPath><clipPath id="02def75510"><path d="M 40 0.179688 L 48 0.179688 L 48 17 L 40 17 Z M 40 0.179688 " clip-rule="nonzero"/></clipPath><clipPath id="8b9e3d2b59"><path d="M 61 0.179688 L 72 0.179688 L 72 20 L 61 20 Z M 61 0.179688 " clip-rule="nonzero"/></clipPath><clipPath id="f47a11dee9"><path d="M 85 0.179688 L 92 0.179688 L 92 20 L 85 20 Z M 85 0.179688 " clip-rule="nonzero"/></clipPath><clipPath id="0677a3e0a0"><path d="M 88 0.179688 L 94 0.179688 L 94 20 L 88 20 Z M 88 0.179688 " clip-rule="nonzero"/></clipPath><clipPath id="4cdcc892fe"><rect x="0" width="98" y="0" height="24"/></clipPath></defs><g transform="matrix(1, 0, 0, 1, 8, 4)"><g clip-path="url(#4cdcc892fe)"><g clip-path="url(#d12ace2829)"><g fill="#D4C4A8" fill-opacity="1"><g transform="translate(1.13999, 13.653695)"><g><path d="M 10.984375 -3.15625 C 11.046875 -3.125 11.085938 -3.070312 11.109375 -3 C 11.140625 -2.9375 11.140625 -2.875 11.109375 -2.8125 C 10.210938 -0.875 9.316406 0.765625 8.421875 2.109375 C 7.523438 3.453125 6.664062 4.472656 5.84375 5.171875 C 5.03125 5.867188 4.265625 6.21875 3.546875 6.21875 C 3.347656 6.21875 3.148438 6.1875 2.953125 6.125 C 2.460938 5.976562 2.046875 5.65625 1.703125 5.15625 C 1.367188 4.664062 1.113281 4.03125 0.9375 3.25 C 0.757812 2.476562 0.671875 1.59375 0.671875 0.59375 C 0.671875 -0.394531 0.765625 -1.472656 0.953125 -2.640625 C 1.085938 -3.421875 1.269531 -4.253906 1.5 -5.140625 C 1.738281 -6.023438 2.003906 -6.882812 2.296875 -7.71875 C 2.460938 -8.1875 2.664062 -8.695312 2.90625 -9.25 C 3.144531 -9.800781 3.410156 -10.347656 3.703125 -10.890625 C 4.003906 -11.429688 4.335938 -11.921875 4.703125 -12.359375 C 4.992188 -12.703125 5.253906 -12.941406 5.484375 -13.078125 C 5.710938 -13.222656 5.910156 -13.300781 6.078125 -13.3125 C 6.253906 -13.320312 6.398438 -13.300781 6.515625 -13.25 C 6.804688 -13.101562 7.015625 -12.800781 7.140625 -12.34375 C 7.265625 -11.894531 7.328125 -11.335938 7.328125 -10.671875 C 7.328125 -10.003906 7.28125 -9.269531 7.1875 -8.46875 C 7.09375 -7.664062 6.960938 -6.835938 6.796875 -5.984375 C 6.640625 -5.140625 6.472656 -4.3125 6.296875 -3.5 C 6.273438 -3.4375 6.234375 -3.382812 6.171875 -3.34375 C 6.109375 -3.300781 6.046875 -3.289062 5.984375 -3.3125 C 5.910156 -3.332031 5.851562 -3.367188 5.8125 -3.421875 C 5.769531 -3.484375 5.757812 -3.550781 5.78125 -3.625 C 6.132812 -5.175781 6.390625 -6.515625 6.546875 -7.640625 C 6.703125 -8.765625 6.785156 -9.691406 6.796875 -10.421875 C 6.804688 -11.148438 6.765625 -11.703125 6.671875 -12.078125 C 6.578125 -12.460938 6.445312 -12.691406 6.28125 -12.765625 C 6.15625 -12.828125 5.988281 -12.789062 5.78125 -12.65625 C 5.570312 -12.53125 5.347656 -12.320312 5.109375 -12.03125 C 4.765625 -11.613281 4.4375 -11.117188 4.125 -10.546875 C 3.8125 -9.984375 3.515625 -9.363281 3.234375 -8.6875 C 2.960938 -8.019531 2.710938 -7.332031 2.484375 -6.625 C 2.253906 -5.914062 2.050781 -5.210938 1.875 -4.515625 C 1.707031 -3.816406 1.570312 -3.160156 1.46875 -2.546875 C 1.289062 -1.460938 1.195312 -0.441406 1.1875 0.515625 C 1.1875 1.472656 1.269531 2.328125 1.4375 3.078125 C 1.582031 3.785156 1.800781 4.359375 2.09375 4.796875 C 2.382812 5.234375 2.722656 5.507812 3.109375 5.625 C 3.960938 5.894531 4.992188 5.398438 6.203125 4.140625 C 7.628906 2.648438 9.109375 0.257812 10.640625 -3.03125 C 10.660156 -3.09375 10.703125 -3.132812 10.765625 -3.15625 C 10.835938 -3.1875 10.910156 -3.1875 10.984375 -3.15625 Z M 10.984375 -3.15625 "/></g></g></g></g><g clip-path="url(#e4da38af43)"><g fill="#D4C4A8" fill-opacity="1"><g transform="translate(11.427485, 13.653695)"><g><path d="M 6.40625 -3.09375 C 6.457031 -3.0625 6.492188 -3.007812 6.515625 -2.9375 C 6.535156 -2.863281 6.523438 -2.796875 6.484375 -2.734375 C 6.054688 -2.035156 5.675781 -1.46875 5.34375 -1.03125 C 5.007812 -0.601562 4.722656 -0.273438 4.484375 -0.046875 C 4.242188 0.171875 4.039062 0.320312 3.875 0.40625 C 3.71875 0.488281 3.585938 0.53125 3.484375 0.53125 C 3.390625 0.53125 3.3125 0.523438 3.25 0.515625 C 3.050781 0.460938 2.898438 0.335938 2.796875 0.140625 C 2.703125 -0.0546875 2.632812 -0.253906 2.59375 -0.453125 C 2.5625 -0.660156 2.546875 -0.820312 2.546875 -0.9375 C 2.523438 -1.25 2.488281 -1.457031 2.4375 -1.5625 C 2.382812 -1.675781 2.34375 -1.734375 2.3125 -1.734375 C 2.300781 -1.734375 2.296875 -1.734375 2.296875 -1.734375 C 2.179688 -1.734375 1.988281 -1.566406 1.71875 -1.234375 C 1.445312 -0.910156 1.128906 -0.398438 0.765625 0.296875 C 0.398438 1.003906 0.0195312 1.921875 -0.375 3.046875 C -0.414062 3.171875 -0.5 3.234375 -0.625 3.234375 C -0.644531 3.234375 -0.660156 3.234375 -0.671875 3.234375 C -0.816406 3.191406 -0.882812 3.097656 -0.875 2.953125 C -0.863281 2.804688 -0.820312 2.535156 -0.75 2.140625 C -0.6875 1.742188 -0.59375 1.265625 -0.46875 0.703125 C -0.34375 0.148438 -0.207031 -0.445312 -0.0625 -1.09375 C 0.0820312 -1.738281 0.234375 -2.394531 0.390625 -3.0625 C 0.554688 -3.726562 0.707031 -4.363281 0.84375 -4.96875 C 0.988281 -5.582031 1.117188 -6.132812 1.234375 -6.625 C 1.359375 -7.113281 1.457031 -7.503906 1.53125 -7.796875 C 1.601562 -8.085938 1.640625 -8.238281 1.640625 -8.25 C 1.847656 -9.070312 2.078125 -9.820312 2.328125 -10.5 C 2.578125 -11.1875 2.828125 -11.734375 3.078125 -12.140625 C 3.328125 -12.554688 3.546875 -12.785156 3.734375 -12.828125 C 3.878906 -12.847656 3.992188 -12.800781 4.078125 -12.6875 C 4.203125 -12.507812 4.191406 -12.132812 4.046875 -11.5625 C 3.898438 -10.988281 3.628906 -10.265625 3.234375 -9.390625 C 2.847656 -8.515625 2.351562 -7.535156 1.75 -6.453125 C 1.582031 -5.785156 1.398438 -5.050781 1.203125 -4.25 C 1.015625 -3.445312 0.828125 -2.640625 0.640625 -1.828125 C 0.453125 -1.015625 0.285156 -0.265625 0.140625 0.421875 C 0.378906 -0.0859375 0.625 -0.550781 0.875 -0.96875 C 1.132812 -1.382812 1.394531 -1.707031 1.65625 -1.9375 C 1.914062 -2.164062 2.15625 -2.269531 2.375 -2.25 C 2.570312 -2.21875 2.71875 -2.113281 2.8125 -1.9375 C 2.90625 -1.769531 2.96875 -1.585938 3 -1.390625 C 3.03125 -1.203125 3.046875 -1.0625 3.046875 -0.96875 C 3.078125 -0.632812 3.125 -0.390625 3.1875 -0.234375 C 3.25 -0.0859375 3.3125 -0.0078125 3.375 0 C 3.394531 0.0078125 3.457031 0 3.5625 -0.03125 C 3.664062 -0.0625 3.816406 -0.160156 4.015625 -0.328125 C 4.222656 -0.503906 4.492188 -0.800781 4.828125 -1.21875 C 5.160156 -1.644531 5.566406 -2.242188 6.046875 -3.015625 C 6.078125 -3.066406 6.128906 -3.101562 6.203125 -3.125 C 6.273438 -3.144531 6.34375 -3.132812 6.40625 -3.09375 Z M 3.640625 -12.0625 C 3.484375 -11.84375 3.273438 -11.445312 3.015625 -10.875 C 2.765625 -10.300781 2.507812 -9.523438 2.25 -8.546875 C 2.707031 -9.453125 3.039062 -10.195312 3.25 -10.78125 C 3.457031 -11.363281 3.585938 -11.789062 3.640625 -12.0625 Z M 3.640625 -12.0625 "/></g></g></g></g><g fill="#D4C4A8" fill-opacity="1"><g transform="translate(17.091662, 13.653695)"><g><path d="M 5.9375 -3.0625 C 6 -3.03125 6.039062 -2.976562 6.0625 -2.90625 C 6.09375 -2.84375 6.09375 -2.78125 6.0625 -2.71875 C 5.882812 -2.34375 5.671875 -1.925781 5.421875 -1.46875 C 5.179688 -1.007812 4.921875 -0.546875 4.640625 -0.078125 C 4.359375 0.378906 4.070312 0.796875 3.78125 1.171875 C 3.5 1.554688 3.222656 1.867188 2.953125 2.109375 C 2.679688 2.347656 2.4375 2.46875 2.21875 2.46875 C 2.15625 2.46875 2.097656 2.457031 2.046875 2.4375 C 1.847656 2.363281 1.71875 2.191406 1.65625 1.921875 C 1.601562 1.648438 1.613281 1.257812 1.6875 0.75 C 1.8125 -0.15625 2.144531 -1.441406 2.6875 -3.109375 C 2.675781 -3.109375 2.664062 -3.101562 2.65625 -3.09375 C 2.46875 -2.96875 2.25 -2.835938 2 -2.703125 C 1.75 -2.566406 1.488281 -2.472656 1.21875 -2.421875 C 0.945312 -2.378906 0.691406 -2.441406 0.453125 -2.609375 C 0.109375 -2.847656 -0.0664062 -3.179688 -0.078125 -3.609375 C -0.0859375 -4.046875 0.0703125 -4.523438 0.40625 -5.046875 C 0.507812 -5.203125 0.648438 -5.378906 0.828125 -5.578125 C 1.003906 -5.773438 1.1875 -5.925781 1.375 -6.03125 C 1.570312 -6.144531 1.75 -6.15625 1.90625 -6.0625 C 1.988281 -6.007812 2.050781 -5.925781 2.09375 -5.8125 C 2.132812 -5.707031 2.128906 -5.539062 2.078125 -5.3125 C 2.035156 -5.09375 1.925781 -4.796875 1.75 -4.421875 C 1.582031 -4.046875 1.328125 -3.554688 0.984375 -2.953125 C 1.191406 -2.921875 1.421875 -2.976562 1.671875 -3.125 C 1.929688 -3.269531 2.160156 -3.40625 2.359375 -3.53125 C 2.554688 -3.65625 2.71875 -3.742188 2.84375 -3.796875 C 2.96875 -3.859375 3.082031 -3.847656 3.1875 -3.765625 C 3.289062 -3.691406 3.332031 -3.59375 3.3125 -3.46875 C 3.289062 -3.351562 3.269531 -3.265625 3.25 -3.203125 C 2.957031 -2.265625 2.726562 -1.484375 2.5625 -0.859375 C 2.40625 -0.242188 2.296875 0.25 2.234375 0.625 C 2.179688 1.007812 2.15625 1.296875 2.15625 1.484375 C 2.15625 1.671875 2.164062 1.796875 2.1875 1.859375 C 2.21875 1.921875 2.234375 1.953125 2.234375 1.953125 C 2.335938 1.972656 2.554688 1.800781 2.890625 1.4375 C 3.234375 1.070312 3.640625 0.523438 4.109375 -0.203125 C 4.578125 -0.941406 5.066406 -1.851562 5.578125 -2.9375 C 5.617188 -3.007812 5.671875 -3.054688 5.734375 -3.078125 C 5.804688 -3.097656 5.875 -3.09375 5.9375 -3.0625 Z M 0.484375 -3.984375 C 0.429688 -3.796875 0.414062 -3.640625 0.4375 -3.515625 C 0.457031 -3.398438 0.492188 -3.304688 0.546875 -3.234375 C 0.828125 -3.734375 1.039062 -4.140625 1.1875 -4.453125 C 1.34375 -4.773438 1.445312 -5.019531 1.5 -5.1875 C 1.550781 -5.363281 1.582031 -5.488281 1.59375 -5.5625 C 1.5 -5.5 1.375 -5.390625 1.21875 -5.234375 C 1.070312 -5.085938 0.925781 -4.90625 0.78125 -4.6875 C 0.644531 -4.46875 0.546875 -4.234375 0.484375 -3.984375 Z M 0.484375 -3.984375 "/></g></g></g><g fill="#D4C4A8" fill-opacity="1"><g transform="translate(22.404386, 13.653695)"><g><path d="M 3.953125 -3.078125 C 4.023438 -3.046875 4.066406 -2.992188 4.078125 -2.921875 C 4.085938 -2.847656 4.078125 -2.78125 4.046875 -2.71875 C 3.867188 -2.445312 3.648438 -2.144531 3.390625 -1.8125 C 3.128906 -1.476562 2.84375 -1.160156 2.53125 -0.859375 C 2.226562 -0.554688 1.925781 -0.304688 1.625 -0.109375 C 1.320312 0.0859375 1.046875 0.1875 0.796875 0.1875 C 0.691406 0.1875 0.597656 0.171875 0.515625 0.140625 C 0.203125 0.00390625 0.03125 -0.320312 0 -0.84375 C -0.03125 -1.363281 0.078125 -2.097656 0.328125 -3.046875 C 0.335938 -3.117188 0.375 -3.171875 0.4375 -3.203125 C 0.507812 -3.234375 0.578125 -3.242188 0.640625 -3.234375 C 0.710938 -3.210938 0.765625 -3.171875 0.796875 -3.109375 C 0.828125 -3.046875 0.835938 -2.984375 0.828125 -2.921875 C 0.679688 -2.335938 0.585938 -1.878906 0.546875 -1.546875 C 0.515625 -1.210938 0.507812 -0.957031 0.53125 -0.78125 C 0.550781 -0.613281 0.582031 -0.5 0.625 -0.4375 C 0.675781 -0.375 0.707031 -0.34375 0.71875 -0.34375 C 0.832031 -0.289062 1 -0.328125 1.21875 -0.453125 C 1.445312 -0.585938 1.703125 -0.785156 1.984375 -1.046875 C 2.265625 -1.304688 2.546875 -1.601562 2.828125 -1.9375 C 3.109375 -2.28125 3.363281 -2.632812 3.59375 -3 C 3.632812 -3.0625 3.6875 -3.097656 3.75 -3.109375 C 3.820312 -3.128906 3.890625 -3.117188 3.953125 -3.078125 Z M 0.765625 -4.15625 C 0.585938 -4.164062 0.492188 -4.21875 0.484375 -4.3125 C 0.484375 -4.40625 0.523438 -4.5 0.609375 -4.59375 C 0.703125 -4.695312 0.789062 -4.769531 0.875 -4.8125 C 1.019531 -4.851562 1.125 -4.84375 1.1875 -4.78125 C 1.257812 -4.71875 1.289062 -4.632812 1.28125 -4.53125 C 1.28125 -4.4375 1.238281 -4.347656 1.15625 -4.265625 C 1.070312 -4.191406 0.941406 -4.15625 0.765625 -4.15625 Z M 0.765625 -4.15625 "/></g></g></g><g fill="#D4C4A8" fill-opacity="1"><g transform="translate(25.743421, 13.653695)"><g><path d="M 6.015625 -3.09375 C 6.066406 -3.050781 6.097656 -2.992188 6.109375 -2.921875 C 6.117188 -2.847656 6.097656 -2.785156 6.046875 -2.734375 C 5.785156 -2.421875 5.492188 -2.078125 5.171875 -1.703125 C 4.859375 -1.335938 4.550781 -0.976562 4.25 -0.625 C 3.945312 -0.28125 3.6875 0.015625 3.46875 0.265625 C 3.257812 0.523438 3.117188 0.703125 3.046875 0.796875 C 2.890625 0.992188 2.738281 1.1875 2.59375 1.375 C 2.707031 1.894531 2.71875 2.382812 2.625 2.84375 C 2.53125 3.3125 2.375 3.726562 2.15625 4.09375 C 1.9375 4.457031 1.703125 4.738281 1.453125 4.9375 C 1.203125 5.144531 0.96875 5.25 0.75 5.25 C 0.613281 5.25 0.503906 5.207031 0.421875 5.125 C 0.265625 4.976562 0.210938 4.765625 0.265625 4.484375 C 0.316406 4.203125 0.429688 3.878906 0.609375 3.515625 C 0.785156 3.148438 1 2.773438 1.25 2.390625 C 1.507812 2.003906 1.769531 1.628906 2.03125 1.265625 C 1.976562 1.109375 1.910156 0.945312 1.828125 0.78125 C 1.753906 0.613281 1.660156 0.441406 1.546875 0.265625 C 1.179688 -0.285156 0.867188 -0.804688 0.609375 -1.296875 C 0.359375 -1.796875 0.238281 -2.25 0.25 -2.65625 C 0.300781 -3.394531 0.632812 -3.953125 1.25 -4.328125 C 1.507812 -4.484375 1.773438 -4.570312 2.046875 -4.59375 C 2.328125 -4.625 2.585938 -4.582031 2.828125 -4.46875 C 2.890625 -4.4375 2.929688 -4.382812 2.953125 -4.3125 C 2.972656 -4.25 2.972656 -4.1875 2.953125 -4.125 C 2.910156 -4.0625 2.851562 -4.015625 2.78125 -3.984375 C 2.71875 -3.960938 2.65625 -3.96875 2.59375 -4 C 2.269531 -4.15625 1.914062 -4.113281 1.53125 -3.875 C 1.0625 -3.59375 0.8125 -3.175781 0.78125 -2.625 C 0.757812 -2.289062 0.867188 -1.894531 1.109375 -1.4375 C 1.359375 -0.988281 1.648438 -0.519531 1.984375 -0.03125 C 2.160156 0.226562 2.300781 0.492188 2.40625 0.765625 C 2.476562 0.679688 2.554688 0.582031 2.640625 0.46875 C 2.710938 0.382812 2.859375 0.210938 3.078125 -0.046875 C 3.296875 -0.316406 3.550781 -0.625 3.84375 -0.96875 C 4.144531 -1.320312 4.453125 -1.679688 4.765625 -2.046875 C 5.085938 -2.421875 5.382812 -2.757812 5.65625 -3.0625 C 5.695312 -3.125 5.753906 -3.15625 5.828125 -3.15625 C 5.898438 -3.164062 5.960938 -3.144531 6.015625 -3.09375 Z M 1.625 3.96875 C 1.6875 3.875 1.757812 3.734375 1.84375 3.546875 C 1.9375 3.359375 2.015625 3.128906 2.078125 2.859375 C 2.148438 2.597656 2.175781 2.304688 2.15625 1.984375 C 1.738281 2.566406 1.425781 3.050781 1.21875 3.4375 C 1.019531 3.832031 0.890625 4.128906 0.828125 4.328125 C 0.773438 4.535156 0.753906 4.671875 0.765625 4.734375 C 0.828125 4.734375 0.941406 4.671875 1.109375 4.546875 C 1.273438 4.429688 1.445312 4.238281 1.625 3.96875 Z M 1.625 3.96875 "/></g></g></g><g fill="#D4C4A8" fill-opacity="1"><g transform="translate(31.191357, 13.653695)"><g><path d="M 11.40625 -7.96875 C 11.445312 -7.914062 11.460938 -7.851562 11.453125 -7.78125 C 11.453125 -7.707031 11.421875 -7.648438 11.359375 -7.609375 C 11.242188 -7.535156 11.140625 -7.539062 11.046875 -7.625 C 10.921875 -7.664062 10.648438 -7.695312 10.234375 -7.71875 C 9.816406 -7.738281 9.289062 -7.75 8.65625 -7.75 C 8.03125 -7.757812 7.335938 -7.757812 6.578125 -7.75 C 5.828125 -7.738281 5.050781 -7.722656 4.25 -7.703125 C 3.445312 -7.691406 2.675781 -7.675781 1.9375 -7.65625 C 1.65625 -6.488281 1.359375 -5.21875 1.046875 -3.84375 C 0.742188 -2.46875 0.445312 -1.070312 0.15625 0.34375 C -0.238281 2.195312 -0.539062 3.71875 -0.75 4.90625 C -0.957031 6.09375 -1.09375 6.953125 -1.15625 7.484375 C -1.144531 7.484375 -1.128906 7.488281 -1.109375 7.5 C -1.035156 7.519531 -0.984375 7.5625 -0.953125 7.625 C -0.929688 7.695312 -0.929688 7.765625 -0.953125 7.828125 C -1.015625 7.984375 -1.078125 8.125 -1.140625 8.25 C -1.210938 8.382812 -1.304688 8.453125 -1.421875 8.453125 C -1.441406 8.453125 -1.472656 8.445312 -1.515625 8.4375 C -1.640625 8.382812 -1.707031 8.285156 -1.71875 8.140625 C -1.738281 7.992188 -1.726562 7.789062 -1.6875 7.53125 C -1.65625 7.144531 -1.578125 6.597656 -1.453125 5.890625 C -1.335938 5.222656 -1.191406 4.441406 -1.015625 3.546875 C -0.847656 2.660156 -0.65625 1.6875 -0.4375 0.625 C -0.132812 -0.820312 0.171875 -2.253906 0.484375 -3.671875 C 0.796875 -5.097656 1.097656 -6.425781 1.390625 -7.65625 C 0.960938 -7.644531 0.550781 -7.632812 0.15625 -7.625 C -0.226562 -7.613281 -0.578125 -7.601562 -0.890625 -7.59375 C -1.492188 -7.570312 -2.019531 -7.554688 -2.46875 -7.546875 C -2.925781 -7.546875 -3.25 -7.546875 -3.4375 -7.546875 C -3.507812 -7.546875 -3.566406 -7.566406 -3.609375 -7.609375 C -3.660156 -7.660156 -3.6875 -7.722656 -3.6875 -7.796875 C -3.6875 -7.867188 -3.660156 -7.929688 -3.609375 -7.984375 C -3.566406 -8.035156 -3.507812 -8.0625 -3.4375 -8.0625 C -3.25 -8.0625 -2.929688 -8.066406 -2.484375 -8.078125 C -2.035156 -8.085938 -1.507812 -8.101562 -0.90625 -8.125 C -0.46875 -8.132812 -0.0507812 -8.140625 0.34375 -8.140625 C 0.75 -8.148438 1.144531 -8.160156 1.53125 -8.171875 C 1.664062 -8.753906 1.796875 -9.296875 1.921875 -9.796875 C 2.054688 -10.304688 2.179688 -10.773438 2.296875 -11.203125 C 2.316406 -11.273438 2.359375 -11.328125 2.421875 -11.359375 C 2.484375 -11.398438 2.546875 -11.410156 2.609375 -11.390625 C 2.679688 -11.367188 2.734375 -11.328125 2.765625 -11.265625 C 2.804688 -11.203125 2.816406 -11.132812 2.796875 -11.0625 C 2.578125 -10.257812 2.328125 -9.300781 2.046875 -8.1875 C 3.453125 -8.21875 4.65625 -8.238281 5.65625 -8.25 C 6.65625 -8.257812 7.492188 -8.265625 8.171875 -8.265625 C 8.847656 -8.265625 9.394531 -8.253906 9.8125 -8.234375 C 10.238281 -8.222656 10.554688 -8.207031 10.765625 -8.1875 C 10.984375 -8.164062 11.132812 -8.132812 11.21875 -8.09375 C 11.3125 -8.0625 11.375 -8.019531 11.40625 -7.96875 Z M 11.40625 -7.96875 "/></g></g></g><g fill="#D4C4A8" fill-opacity="1"><g transform="translate(32.989307, 13.653695)"><g><path d="M 4.890625 -2.953125 C 4.953125 -2.898438 4.988281 -2.835938 5 -2.765625 C 5.007812 -2.691406 4.992188 -2.628906 4.953125 -2.578125 C 4.710938 -2.285156 4.4375 -2.019531 4.125 -1.78125 C 3.8125 -1.550781 3.488281 -1.378906 3.15625 -1.265625 C 2.820312 -1.148438 2.492188 -1.128906 2.171875 -1.203125 C 2.046875 -0.890625 1.867188 -0.644531 1.640625 -0.46875 C 1.410156 -0.300781 1.179688 -0.21875 0.953125 -0.21875 C 0.953125 -0.21875 0.945312 -0.21875 0.9375 -0.21875 C 0.6875 -0.226562 0.46875 -0.3125 0.28125 -0.46875 C 0.101562 -0.625 -0.0195312 -0.84375 -0.09375 -1.125 C -0.175781 -1.4375 -0.1875 -1.734375 -0.125 -2.015625 C -0.0703125 -2.304688 0.0195312 -2.554688 0.15625 -2.765625 C 0.300781 -2.984375 0.46875 -3.148438 0.65625 -3.265625 C 0.71875 -3.316406 0.785156 -3.328125 0.859375 -3.296875 C 0.941406 -3.492188 1.054688 -3.644531 1.203125 -3.75 C 1.359375 -3.863281 1.515625 -3.90625 1.671875 -3.875 C 1.773438 -3.863281 1.882812 -3.804688 2 -3.703125 C 2.113281 -3.597656 2.207031 -3.410156 2.28125 -3.140625 C 2.351562 -2.878906 2.378906 -2.488281 2.359375 -1.96875 C 2.347656 -1.882812 2.332031 -1.796875 2.3125 -1.703125 C 2.550781 -1.660156 2.804688 -1.6875 3.078125 -1.78125 C 3.347656 -1.882812 3.609375 -2.035156 3.859375 -2.234375 C 4.117188 -2.441406 4.34375 -2.664062 4.53125 -2.90625 C 4.570312 -2.957031 4.628906 -2.988281 4.703125 -3 C 4.773438 -3.007812 4.835938 -2.992188 4.890625 -2.953125 Z M 0.953125 -0.75 C 1.066406 -0.75 1.191406 -0.800781 1.328125 -0.90625 C 1.472656 -1.007812 1.59375 -1.171875 1.6875 -1.390625 C 1.363281 -1.566406 1.128906 -1.769531 0.984375 -2 C 0.847656 -2.238281 0.773438 -2.476562 0.765625 -2.71875 C 0.578125 -2.539062 0.453125 -2.3125 0.390625 -2.03125 C 0.335938 -1.75 0.34375 -1.492188 0.40625 -1.265625 C 0.4375 -1.171875 0.488281 -1.0625 0.5625 -0.9375 C 0.644531 -0.8125 0.773438 -0.75 0.953125 -0.75 Z M 1.828125 -2 C 1.847656 -2.363281 1.835938 -2.644531 1.796875 -2.84375 C 1.765625 -3.039062 1.726562 -3.175781 1.6875 -3.25 C 1.644531 -3.320312 1.613281 -3.359375 1.59375 -3.359375 C 1.582031 -3.359375 1.578125 -3.359375 1.578125 -3.359375 C 1.554688 -3.359375 1.515625 -3.332031 1.453125 -3.28125 C 1.398438 -3.226562 1.359375 -3.148438 1.328125 -3.046875 C 1.273438 -2.867188 1.28125 -2.675781 1.34375 -2.46875 C 1.40625 -2.269531 1.566406 -2.085938 1.828125 -1.921875 C 1.828125 -1.941406 1.828125 -1.96875 1.828125 -2 Z M 1.828125 -2 "/></g></g></g><g clip-path="url(#fb53985109)"><g fill="#D4C4A8" fill-opacity="1"><g transform="translate(37.31521, 13.653695)"><g><path d="M 2.890625 -5.015625 C 3.160156 -4.929688 3.335938 -4.71875 3.421875 -4.375 C 3.515625 -4.03125 3.503906 -3.625 3.390625 -3.15625 C 3.253906 -2.664062 3.023438 -2.234375 2.703125 -1.859375 C 2.390625 -1.492188 2.085938 -1.191406 1.796875 -0.953125 C 1.441406 -0.671875 1.054688 -0.421875 0.640625 -0.203125 C 0.492188 0.367188 0.34375 1.003906 0.1875 1.703125 C 0.03125 2.398438 -0.117188 3.113281 -0.265625 3.84375 C -0.421875 4.582031 -0.566406 5.300781 -0.703125 6 C -0.835938 6.695312 -0.960938 7.335938 -1.078125 7.921875 C -1.191406 8.515625 -1.28125 9.007812 -1.34375 9.40625 C -1.363281 9.550781 -1.445312 9.625 -1.59375 9.625 C -1.613281 9.625 -1.628906 9.625 -1.640625 9.625 C -1.710938 9.613281 -1.765625 9.578125 -1.796875 9.515625 C -1.835938 9.460938 -1.859375 9.398438 -1.859375 9.328125 C -1.785156 8.816406 -1.6875 8.207031 -1.5625 7.5 C -1.445312 6.800781 -1.316406 6.039062 -1.171875 5.21875 C -1.035156 4.40625 -0.894531 3.570312 -0.75 2.71875 C -0.601562 1.863281 -0.453125 1.019531 -0.296875 0.1875 C -0.398438 0.226562 -0.507812 0.257812 -0.625 0.28125 C -0.695312 0.3125 -0.765625 0.304688 -0.828125 0.265625 C -0.890625 0.234375 -0.929688 0.179688 -0.953125 0.109375 C -0.960938 0.0351562 -0.945312 -0.03125 -0.90625 -0.09375 C -0.875 -0.15625 -0.820312 -0.195312 -0.75 -0.21875 C -0.570312 -0.257812 -0.390625 -0.320312 -0.203125 -0.40625 C -0.160156 -0.644531 -0.113281 -0.878906 -0.0625 -1.109375 C -0.0195312 -1.347656 0.015625 -1.582031 0.046875 -1.8125 C 0.179688 -2.519531 0.300781 -3.171875 0.40625 -3.765625 C 0.507812 -4.367188 0.59375 -4.867188 0.65625 -5.265625 C 0.726562 -5.660156 0.765625 -5.882812 0.765625 -5.9375 C 0.765625 -6.09375 0.847656 -6.175781 1.015625 -6.1875 C 1.085938 -6.195312 1.148438 -6.175781 1.203125 -6.125 C 1.253906 -6.082031 1.285156 -6.023438 1.296875 -5.953125 C 1.296875 -5.929688 1.285156 -5.863281 1.265625 -5.75 C 1.253906 -5.644531 1.226562 -5.46875 1.1875 -5.21875 C 1.144531 -4.96875 1.078125 -4.601562 0.984375 -4.125 C 0.898438 -3.644531 0.789062 -3.023438 0.65625 -2.265625 C 0.90625 -2.960938 1.144531 -3.503906 1.375 -3.890625 C 1.601562 -4.285156 1.816406 -4.566406 2.015625 -4.734375 C 2.210938 -4.898438 2.382812 -4.992188 2.53125 -5.015625 C 2.675781 -5.046875 2.796875 -5.046875 2.890625 -5.015625 Z M 2.890625 -3.296875 C 2.984375 -3.648438 3.003906 -3.929688 2.953125 -4.140625 C 2.898438 -4.359375 2.832031 -4.484375 2.75 -4.515625 C 2.738281 -4.523438 2.722656 -4.53125 2.703125 -4.53125 C 2.628906 -4.53125 2.515625 -4.460938 2.359375 -4.328125 C 2.203125 -4.203125 2.015625 -3.957031 1.796875 -3.59375 C 1.585938 -3.238281 1.367188 -2.71875 1.140625 -2.03125 C 1.046875 -1.757812 0.9375 -1.378906 0.8125 -0.890625 C 1.300781 -1.191406 1.738281 -1.546875 2.125 -1.953125 C 2.507812 -2.367188 2.765625 -2.816406 2.890625 -3.296875 Z M 2.890625 -3.296875 "/></g></g></g></g><g clip-path="url(#02def75510)"><g fill="#D4C4A8" fill-opacity="1"><g transform="translate(41.235513, 13.653695)"><g><path d="M 6.40625 -3.09375 C 6.457031 -3.0625 6.492188 -3.007812 6.515625 -2.9375 C 6.535156 -2.863281 6.523438 -2.796875 6.484375 -2.734375 C 6.054688 -2.035156 5.675781 -1.46875 5.34375 -1.03125 C 5.007812 -0.601562 4.722656 -0.273438 4.484375 -0.046875 C 4.242188 0.171875 4.039062 0.320312 3.875 0.40625 C 3.71875 0.488281 3.585938 0.53125 3.484375 0.53125 C 3.390625 0.53125 3.3125 0.523438 3.25 0.515625 C 3.050781 0.460938 2.898438 0.335938 2.796875 0.140625 C 2.703125 -0.0546875 2.632812 -0.253906 2.59375 -0.453125 C 2.5625 -0.660156 2.546875 -0.820312 2.546875 -0.9375 C 2.523438 -1.25 2.488281 -1.457031 2.4375 -1.5625 C 2.382812 -1.675781 2.34375 -1.734375 2.3125 -1.734375 C 2.300781 -1.734375 2.296875 -1.734375 2.296875 -1.734375 C 2.179688 -1.734375 1.988281 -1.566406 1.71875 -1.234375 C 1.445312 -0.910156 1.128906 -0.398438 0.765625 0.296875 C 0.398438 1.003906 0.0195312 1.921875 -0.375 3.046875 C -0.414062 3.171875 -0.5 3.234375 -0.625 3.234375 C -0.644531 3.234375 -0.660156 3.234375 -0.671875 3.234375 C -0.816406 3.191406 -0.882812 3.097656 -0.875 2.953125 C -0.863281 2.804688 -0.820312 2.535156 -0.75 2.140625 C -0.6875 1.742188 -0.59375 1.265625 -0.46875 0.703125 C -0.34375 0.148438 -0.207031 -0.445312 -0.0625 -1.09375 C 0.0820312 -1.738281 0.234375 -2.394531 0.390625 -3.0625 C 0.554688 -3.726562 0.707031 -4.363281 0.84375 -4.96875 C 0.988281 -5.582031 1.117188 -6.132812 1.234375 -6.625 C 1.359375 -7.113281 1.457031 -7.503906 1.53125 -7.796875 C 1.601562 -8.085938 1.640625 -8.238281 1.640625 -8.25 C 1.847656 -9.070312 2.078125 -9.820312 2.328125 -10.5 C 2.578125 -11.1875 2.828125 -11.734375 3.078125 -12.140625 C 3.328125 -12.554688 3.546875 -12.785156 3.734375 -12.828125 C 3.878906 -12.847656 3.992188 -12.800781 4.078125 -12.6875 C 4.203125 -12.507812 4.191406 -12.132812 4.046875 -11.5625 C 3.898438 -10.988281 3.628906 -10.265625 3.234375 -9.390625 C 2.847656 -8.515625 2.351562 -7.535156 1.75 -6.453125 C 1.582031 -5.785156 1.398438 -5.050781 1.203125 -4.25 C 1.015625 -3.445312 0.828125 -2.640625 0.640625 -1.828125 C 0.453125 -1.015625 0.285156 -0.265625 0.140625 0.421875 C 0.378906 -0.0859375 0.625 -0.550781 0.875 -0.96875 C 1.132812 -1.382812 1.394531 -1.707031 1.65625 -1.9375 C 1.914062 -2.164062 2.15625 -2.269531 2.375 -2.25 C 2.570312 -2.21875 2.71875 -2.113281 2.8125 -1.9375 C 2.90625 -1.769531 2.96875 -1.585938 3 -1.390625 C 3.03125 -1.203125 3.046875 -1.0625 3.046875 -0.96875 C 3.078125 -0.632812 3.125 -0.390625 3.1875 -0.234375 C 3.25 -0.0859375 3.3125 -0.0078125 3.375 0 C 3.394531 0.0078125 3.457031 0 3.5625 -0.03125 C 3.664062 -0.0625 3.816406 -0.160156 4.015625 -0.328125 C 4.222656 -0.503906 4.492188 -0.800781 4.828125 -1.21875 C 5.160156 -1.644531 5.566406 -2.242188 6.046875 -3.015625 C 6.078125 -3.066406 6.128906 -3.101562 6.203125 -3.125 C 6.273438 -3.144531 6.34375 -3.132812 6.40625 -3.09375 Z M 3.640625 -12.0625 C 3.484375 -11.84375 3.273438 -11.445312 3.015625 -10.875 C 2.765625 -10.300781 2.507812 -9.523438 2.25 -8.546875 C 2.707031 -9.453125 3.039062 -10.195312 3.25 -10.78125 C 3.457031 -11.363281 3.585938 -11.789062 3.640625 -12.0625 Z M 3.640625 -12.0625 "/></g></g></g></g><g fill="#D4C4A8" fill-opacity="1"><g transform="translate(47.061964, 13.653695)"><g><path d="M 4.5625 -3.015625 C 4.625 -2.972656 4.660156 -2.914062 4.671875 -2.84375 C 4.679688 -2.78125 4.671875 -2.71875 4.640625 -2.65625 C 4.109375 -1.914062 3.617188 -1.304688 3.171875 -0.828125 C 2.734375 -0.347656 2.296875 0.046875 1.859375 0.359375 C 1.523438 0.597656 1.191406 0.71875 0.859375 0.71875 C 0.609375 0.71875 0.390625 0.648438 0.203125 0.515625 C 0.078125 0.421875 -0.0390625 0.257812 -0.15625 0.03125 C -0.28125 -0.195312 -0.347656 -0.53125 -0.359375 -0.96875 C -0.367188 -1.40625 -0.265625 -1.976562 -0.046875 -2.6875 C -0.046875 -2.6875 -0.046875 -2.691406 -0.046875 -2.703125 C 0.222656 -3.566406 0.539062 -4.222656 0.90625 -4.671875 C 1.269531 -5.128906 1.585938 -5.363281 1.859375 -5.375 C 2.054688 -5.382812 2.1875 -5.296875 2.25 -5.109375 C 2.351562 -4.847656 2.238281 -4.472656 1.90625 -3.984375 C 1.570312 -3.503906 1.082031 -2.992188 0.4375 -2.453125 C 0.238281 -1.828125 0.140625 -1.335938 0.140625 -0.984375 C 0.148438 -0.628906 0.203125 -0.367188 0.296875 -0.203125 C 0.390625 -0.046875 0.460938 0.0507812 0.515625 0.09375 C 0.785156 0.289062 1.128906 0.238281 1.546875 -0.0625 C 1.960938 -0.351562 2.382812 -0.726562 2.8125 -1.1875 C 3.238281 -1.65625 3.703125 -2.242188 4.203125 -2.953125 C 4.242188 -3.015625 4.300781 -3.050781 4.375 -3.0625 C 4.445312 -3.070312 4.507812 -3.054688 4.5625 -3.015625 Z M 1.75 -4.8125 C 1.65625 -4.75 1.519531 -4.613281 1.34375 -4.40625 C 1.175781 -4.207031 1.003906 -3.914062 0.828125 -3.53125 C 1.148438 -3.84375 1.378906 -4.109375 1.515625 -4.328125 C 1.648438 -4.546875 1.726562 -4.707031 1.75 -4.8125 Z M 1.75 -4.8125 "/></g></g></g><g fill="#D4C4A8" fill-opacity="1"><g transform="translate(50.995828, 13.653695)"><g><path d="M 5.9375 -3.0625 C 6 -3.03125 6.039062 -2.976562 6.0625 -2.90625 C 6.09375 -2.84375 6.09375 -2.78125 6.0625 -2.71875 C 5.882812 -2.34375 5.671875 -1.925781 5.421875 -1.46875 C 5.179688 -1.007812 4.921875 -0.546875 4.640625 -0.078125 C 4.359375 0.378906 4.070312 0.796875 3.78125 1.171875 C 3.5 1.554688 3.222656 1.867188 2.953125 2.109375 C 2.679688 2.347656 2.4375 2.46875 2.21875 2.46875 C 2.15625 2.46875 2.097656 2.457031 2.046875 2.4375 C 1.847656 2.363281 1.71875 2.191406 1.65625 1.921875 C 1.601562 1.648438 1.613281 1.257812 1.6875 0.75 C 1.8125 -0.15625 2.144531 -1.441406 2.6875 -3.109375 C 2.675781 -3.109375 2.664062 -3.101562 2.65625 -3.09375 C 2.46875 -2.96875 2.25 -2.835938 2 -2.703125 C 1.75 -2.566406 1.488281 -2.472656 1.21875 -2.421875 C 0.945312 -2.378906 0.691406 -2.441406 0.453125 -2.609375 C 0.109375 -2.847656 -0.0664062 -3.179688 -0.078125 -3.609375 C -0.0859375 -4.046875 0.0703125 -4.523438 0.40625 -5.046875 C 0.507812 -5.203125 0.648438 -5.378906 0.828125 -5.578125 C 1.003906 -5.773438 1.1875 -5.925781 1.375 -6.03125 C 1.570312 -6.144531 1.75 -6.15625 1.90625 -6.0625 C 1.988281 -6.007812 2.050781 -5.925781 2.09375 -5.8125 C 2.132812 -5.707031 2.128906 -5.539062 2.078125 -5.3125 C 2.035156 -5.09375 1.925781 -4.796875 1.75 -4.421875 C 1.582031 -4.046875 1.328125 -3.554688 0.984375 -2.953125 C 1.191406 -2.921875 1.421875 -2.976562 1.671875 -3.125 C 1.929688 -3.269531 2.160156 -3.40625 2.359375 -3.53125 C 2.554688 -3.65625 2.71875 -3.742188 2.84375 -3.796875 C 2.96875 -3.859375 3.082031 -3.847656 3.1875 -3.765625 C 3.289062 -3.691406 3.332031 -3.59375 3.3125 -3.46875 C 3.289062 -3.351562 3.269531 -3.265625 3.25 -3.203125 C 2.957031 -2.265625 2.726562 -1.484375 2.5625 -0.859375 C 2.40625 -0.242188 2.296875 0.25 2.234375 0.625 C 2.179688 1.007812 2.15625 1.296875 2.15625 1.484375 C 2.15625 1.671875 2.164062 1.796875 2.1875 1.859375 C 2.21875 1.921875 2.234375 1.953125 2.234375 1.953125 C 2.335938 1.972656 2.554688 1.800781 2.890625 1.4375 C 3.234375 1.070312 3.640625 0.523438 4.109375 -0.203125 C 4.578125 -0.941406 5.066406 -1.851562 5.578125 -2.9375 C 5.617188 -3.007812 5.671875 -3.054688 5.734375 -3.078125 C 5.804688 -3.097656 5.875 -3.09375 5.9375 -3.0625 Z M 0.484375 -3.984375 C 0.429688 -3.796875 0.414062 -3.640625 0.4375 -3.515625 C 0.457031 -3.398438 0.492188 -3.304688 0.546875 -3.234375 C 0.828125 -3.734375 1.039062 -4.140625 1.1875 -4.453125 C 1.34375 -4.773438 1.445312 -5.019531 1.5 -5.1875 C 1.550781 -5.363281 1.582031 -5.488281 1.59375 -5.5625 C 1.5 -5.5 1.375 -5.390625 1.21875 -5.234375 C 1.070312 -5.085938 0.925781 -4.90625 0.78125 -4.6875 C 0.644531 -4.46875 0.546875 -4.234375 0.484375 -3.984375 Z M 0.484375 -3.984375 "/></g></g></g><g fill="#D4C4A8" fill-opacity="1"><g transform="translate(56.389689, 13.653695)"><g/></g></g><g clip-path="url(#8b9e3d2b59)"><g fill="#D4C4A8" fill-opacity="1"><g transform="translate(60.539854, 13.653695)"><g><path d="M 10.984375 -3.15625 C 11.046875 -3.125 11.085938 -3.070312 11.109375 -3 C 11.140625 -2.9375 11.140625 -2.875 11.109375 -2.8125 C 10.210938 -0.875 9.316406 0.765625 8.421875 2.109375 C 7.523438 3.453125 6.664062 4.472656 5.84375 5.171875 C 5.03125 5.867188 4.265625 6.21875 3.546875 6.21875 C 3.347656 6.21875 3.148438 6.1875 2.953125 6.125 C 2.460938 5.976562 2.046875 5.65625 1.703125 5.15625 C 1.367188 4.664062 1.113281 4.03125 0.9375 3.25 C 0.757812 2.476562 0.671875 1.59375 0.671875 0.59375 C 0.671875 -0.394531 0.765625 -1.472656 0.953125 -2.640625 C 1.085938 -3.421875 1.269531 -4.253906 1.5 -5.140625 C 1.738281 -6.023438 2.003906 -6.882812 2.296875 -7.71875 C 2.460938 -8.1875 2.664062 -8.695312 2.90625 -9.25 C 3.144531 -9.800781 3.410156 -10.347656 3.703125 -10.890625 C 4.003906 -11.429688 4.335938 -11.921875 4.703125 -12.359375 C 4.992188 -12.703125 5.253906 -12.941406 5.484375 -13.078125 C 5.710938 -13.222656 5.910156 -13.300781 6.078125 -13.3125 C 6.253906 -13.320312 6.398438 -13.300781 6.515625 -13.25 C 6.804688 -13.101562 7.015625 -12.800781 7.140625 -12.34375 C 7.265625 -11.894531 7.328125 -11.335938 7.328125 -10.671875 C 7.328125 -10.003906 7.28125 -9.269531 7.1875 -8.46875 C 7.09375 -7.664062 6.960938 -6.835938 6.796875 -5.984375 C 6.640625 -5.140625 6.472656 -4.3125 6.296875 -3.5 C 6.273438 -3.4375 6.234375 -3.382812 6.171875 -3.34375 C 6.109375 -3.300781 6.046875 -3.289062 5.984375 -3.3125 C 5.910156 -3.332031 5.851562 -3.367188 5.8125 -3.421875 C 5.769531 -3.484375 5.757812 -3.550781 5.78125 -3.625 C 6.132812 -5.175781 6.390625 -6.515625 6.546875 -7.640625 C 6.703125 -8.765625 6.785156 -9.691406 6.796875 -10.421875 C 6.804688 -11.148438 6.765625 -11.703125 6.671875 -12.078125 C 6.578125 -12.460938 6.445312 -12.691406 6.28125 -12.765625 C 6.15625 -12.828125 5.988281 -12.789062 5.78125 -12.65625 C 5.570312 -12.53125 5.347656 -12.320312 5.109375 -12.03125 C 4.765625 -11.613281 4.4375 -11.117188 4.125 -10.546875 C 3.8125 -9.984375 3.515625 -9.363281 3.234375 -8.6875 C 2.960938 -8.019531 2.710938 -7.332031 2.484375 -6.625 C 2.253906 -5.914062 2.050781 -5.210938 1.875 -4.515625 C 1.707031 -3.816406 1.570312 -3.160156 1.46875 -2.546875 C 1.289062 -1.460938 1.195312 -0.441406 1.1875 0.515625 C 1.1875 1.472656 1.269531 2.328125 1.4375 3.078125 C 1.582031 3.785156 1.800781 4.359375 2.09375 4.796875 C 2.382812 5.234375 2.722656 5.507812 3.109375 5.625 C 3.960938 5.894531 4.992188 5.398438 6.203125 4.140625 C 7.628906 2.648438 9.109375 0.257812 10.640625 -3.03125 C 10.660156 -3.09375 10.703125 -3.132812 10.765625 -3.15625 C 10.835938 -3.1875 10.910156 -3.1875 10.984375 -3.15625 Z M 10.984375 -3.15625 "/></g></g></g></g><g fill="#D4C4A8" fill-opacity="1"><g transform="translate(70.976098, 13.653695)"><g><path d="M 5.65625 -3 C 5.71875 -2.96875 5.757812 -2.914062 5.78125 -2.84375 C 5.8125 -2.78125 5.8125 -2.71875 5.78125 -2.65625 C 5.613281 -2.3125 5.425781 -1.960938 5.21875 -1.609375 C 5.019531 -1.253906 4.804688 -0.929688 4.578125 -0.640625 C 4.359375 -0.347656 4.128906 -0.113281 3.890625 0.0625 C 3.660156 0.238281 3.429688 0.328125 3.203125 0.328125 C 3.160156 0.328125 3.109375 0.320312 3.046875 0.3125 C 2.453125 0.195312 2.082031 -0.613281 1.9375 -2.125 C 1.78125 -1.914062 1.597656 -1.679688 1.390625 -1.421875 C 1.191406 -1.171875 0.976562 -0.914062 0.75 -0.65625 C 0.71875 -0.625 0.660156 -0.566406 0.578125 -0.484375 C 0.492188 -0.410156 0.398438 -0.351562 0.296875 -0.3125 C 0.191406 -0.269531 0.0820312 -0.273438 -0.03125 -0.328125 C -0.238281 -0.410156 -0.34375 -0.644531 -0.34375 -1.03125 C -0.34375 -1.25 -0.296875 -1.523438 -0.203125 -1.859375 C -0.117188 -2.191406 0 -2.523438 0.15625 -2.859375 C 0.3125 -3.203125 0.492188 -3.503906 0.703125 -3.765625 C 0.921875 -4.023438 1.160156 -4.203125 1.421875 -4.296875 C 1.578125 -4.359375 1.769531 -4.367188 2 -4.328125 C 2.238281 -4.285156 2.488281 -4.117188 2.75 -3.828125 C 2.789062 -3.773438 2.804688 -3.710938 2.796875 -3.640625 C 2.796875 -3.566406 2.769531 -3.503906 2.71875 -3.453125 C 2.664062 -3.410156 2.601562 -3.390625 2.53125 -3.390625 C 2.457031 -3.398438 2.398438 -3.429688 2.359375 -3.484375 C 2.140625 -3.734375 1.945312 -3.851562 1.78125 -3.84375 C 1.625 -3.832031 1.492188 -3.785156 1.390625 -3.703125 C 1.191406 -3.554688 1.007812 -3.347656 0.84375 -3.078125 C 0.6875 -2.804688 0.550781 -2.519531 0.4375 -2.21875 C 0.332031 -1.925781 0.257812 -1.648438 0.21875 -1.390625 C 0.175781 -1.140625 0.160156 -0.957031 0.171875 -0.84375 C 0.203125 -0.851562 0.234375 -0.875 0.265625 -0.90625 C 0.296875 -0.9375 0.328125 -0.972656 0.359375 -1.015625 C 0.628906 -1.304688 0.878906 -1.597656 1.109375 -1.890625 C 1.335938 -2.191406 1.53125 -2.453125 1.6875 -2.671875 C 1.726562 -2.734375 1.769531 -2.796875 1.8125 -2.859375 C 1.851562 -2.921875 1.894531 -2.972656 1.9375 -3.015625 C 2.007812 -3.109375 2.101562 -3.132812 2.21875 -3.09375 C 2.332031 -3.0625 2.394531 -2.984375 2.40625 -2.859375 C 2.4375 -2.273438 2.484375 -1.804688 2.546875 -1.453125 C 2.617188 -1.097656 2.691406 -0.832031 2.765625 -0.65625 C 2.847656 -0.476562 2.925781 -0.359375 3 -0.296875 C 3.070312 -0.234375 3.125 -0.203125 3.15625 -0.203125 C 3.332031 -0.171875 3.609375 -0.347656 3.984375 -0.734375 C 4.367188 -1.117188 4.8125 -1.832031 5.3125 -2.875 C 5.34375 -2.945312 5.390625 -2.992188 5.453125 -3.015625 C 5.523438 -3.035156 5.59375 -3.03125 5.65625 -3 Z M 5.65625 -3 "/></g></g></g><g fill="#D4C4A8" fill-opacity="1"><g transform="translate(76.004956, 13.653695)"><g><path d="M 6.78125 -2.953125 C 6.84375 -2.898438 6.875 -2.835938 6.875 -2.765625 C 6.882812 -2.691406 6.867188 -2.628906 6.828125 -2.578125 C 6.484375 -2.179688 6.085938 -1.894531 5.640625 -1.71875 C 5.203125 -1.539062 4.785156 -1.507812 4.390625 -1.625 C 3.929688 -1.738281 3.578125 -2.019531 3.328125 -2.46875 C 3.097656 -1.6875 2.753906 -0.914062 2.296875 -0.15625 C 1.992188 0.351562 1.679688 0.773438 1.359375 1.109375 C 1.046875 1.453125 0.765625 1.664062 0.515625 1.75 C 0.421875 1.769531 0.332031 1.78125 0.25 1.78125 C 0.15625 1.78125 0.0703125 1.757812 0 1.71875 C -0.0625 1.675781 -0.113281 1.644531 -0.15625 1.625 C -0.1875 1.570312 -0.226562 1.5 -0.28125 1.40625 C -0.34375 1.3125 -0.382812 1.160156 -0.40625 0.953125 C -0.4375 0.742188 -0.425781 0.441406 -0.375 0.046875 C -0.332031 -0.347656 -0.234375 -0.863281 -0.078125 -1.5 C 0.078125 -2.132812 0.316406 -2.921875 0.640625 -3.859375 C 0.648438 -3.921875 0.6875 -3.96875 0.75 -4 C 0.820312 -4.039062 0.890625 -4.050781 0.953125 -4.03125 C 1.023438 -4 1.078125 -3.953125 1.109375 -3.890625 C 1.140625 -3.828125 1.144531 -3.757812 1.125 -3.6875 C 0.84375 -2.84375 0.625 -2.128906 0.46875 -1.546875 C 0.320312 -0.960938 0.222656 -0.488281 0.171875 -0.125 C 0.117188 0.238281 0.09375 0.515625 0.09375 0.703125 C 0.101562 0.898438 0.125 1.035156 0.15625 1.109375 C 0.1875 1.191406 0.207031 1.238281 0.21875 1.25 C 0.226562 1.25 0.238281 1.25 0.25 1.25 C 0.257812 1.257812 0.289062 1.257812 0.34375 1.25 C 0.539062 1.1875 0.773438 1.003906 1.046875 0.703125 C 1.316406 0.398438 1.585938 0.0195312 1.859375 -0.4375 C 2.128906 -0.894531 2.367188 -1.382812 2.578125 -1.90625 C 2.785156 -2.425781 2.925781 -2.941406 3 -3.453125 C 3.019531 -3.585938 3.101562 -3.660156 3.25 -3.671875 C 3.394531 -3.671875 3.484375 -3.597656 3.515625 -3.453125 C 3.660156 -2.703125 4 -2.257812 4.53125 -2.125 C 4.820312 -2.039062 5.140625 -2.070312 5.484375 -2.21875 C 5.835938 -2.363281 6.148438 -2.597656 6.421875 -2.921875 C 6.472656 -2.972656 6.53125 -3 6.59375 -3 C 6.664062 -3.007812 6.726562 -2.992188 6.78125 -2.953125 Z M 6.78125 -2.953125 "/></g></g></g><g fill="#D4C4A8" fill-opacity="1"><g transform="translate(82.304524, 13.653695)"><g><path d="M 5.65625 -3 C 5.71875 -2.96875 5.757812 -2.914062 5.78125 -2.84375 C 5.8125 -2.78125 5.8125 -2.71875 5.78125 -2.65625 C 5.613281 -2.3125 5.425781 -1.960938 5.21875 -1.609375 C 5.019531 -1.253906 4.804688 -0.929688 4.578125 -0.640625 C 4.359375 -0.347656 4.128906 -0.113281 3.890625 0.0625 C 3.660156 0.238281 3.429688 0.328125 3.203125 0.328125 C 3.160156 0.328125 3.109375 0.320312 3.046875 0.3125 C 2.453125 0.195312 2.082031 -0.613281 1.9375 -2.125 C 1.78125 -1.914062 1.597656 -1.679688 1.390625 -1.421875 C 1.191406 -1.171875 0.976562 -0.914062 0.75 -0.65625 C 0.71875 -0.625 0.660156 -0.566406 0.578125 -0.484375 C 0.492188 -0.410156 0.398438 -0.351562 0.296875 -0.3125 C 0.191406 -0.269531 0.0820312 -0.273438 -0.03125 -0.328125 C -0.238281 -0.410156 -0.34375 -0.644531 -0.34375 -1.03125 C -0.34375 -1.25 -0.296875 -1.523438 -0.203125 -1.859375 C -0.117188 -2.191406 0 -2.523438 0.15625 -2.859375 C 0.3125 -3.203125 0.492188 -3.503906 0.703125 -3.765625 C 0.921875 -4.023438 1.160156 -4.203125 1.421875 -4.296875 C 1.578125 -4.359375 1.769531 -4.367188 2 -4.328125 C 2.238281 -4.285156 2.488281 -4.117188 2.75 -3.828125 C 2.789062 -3.773438 2.804688 -3.710938 2.796875 -3.640625 C 2.796875 -3.566406 2.769531 -3.503906 2.71875 -3.453125 C 2.664062 -3.410156 2.601562 -3.390625 2.53125 -3.390625 C 2.457031 -3.398438 2.398438 -3.429688 2.359375 -3.484375 C 2.140625 -3.734375 1.945312 -3.851562 1.78125 -3.84375 C 1.625 -3.832031 1.492188 -3.785156 1.390625 -3.703125 C 1.191406 -3.554688 1.007812 -3.347656 0.84375 -3.078125 C 0.6875 -2.804688 0.550781 -2.519531 0.4375 -2.21875 C 0.332031 -1.925781 0.257812 -1.648438 0.21875 -1.390625 C 0.175781 -1.140625 0.160156 -0.957031 0.171875 -0.84375 C 0.203125 -0.851562 0.234375 -0.875 0.265625 -0.90625 C 0.296875 -0.9375 0.328125 -0.972656 0.359375 -1.015625 C 0.628906 -1.304688 0.878906 -1.597656 1.109375 -1.890625 C 1.335938 -2.191406 1.53125 -2.453125 1.6875 -2.671875 C 1.726562 -2.734375 1.769531 -2.796875 1.8125 -2.859375 C 1.851562 -2.921875 1.894531 -2.972656 1.9375 -3.015625 C 2.007812 -3.109375 2.101562 -3.132812 2.21875 -3.09375 C 2.332031 -3.0625 2.394531 -2.984375 2.40625 -2.859375 C 2.4375 -2.273438 2.484375 -1.804688 2.546875 -1.453125 C 2.617188 -1.097656 2.691406 -0.832031 2.765625 -0.65625 C 2.847656 -0.476562 2.925781 -0.359375 3 -0.296875 C 3.070312 -0.234375 3.125 -0.203125 3.15625 -0.203125 C 3.332031 -0.171875 3.609375 -0.347656 3.984375 -0.734375 C 4.367188 -1.117188 4.8125 -1.832031 5.3125 -2.875 C 5.34375 -2.945312 5.390625 -2.992188 5.453125 -3.015625 C 5.523438 -3.035156 5.59375 -3.03125 5.65625 -3 Z M 5.65625 -3 "/></g></g></g><g clip-path="url(#f47a11dee9)"><g fill="#D4C4A8" fill-opacity="1"><g transform="translate(87.333382, 13.653695)"><g><path d="M 3.96875 -12.671875 C 4.09375 -12.492188 4.097656 -12.144531 3.984375 -11.625 C 3.867188 -11.101562 3.632812 -10.457031 3.28125 -9.6875 C 2.925781 -8.914062 2.457031 -8.0625 1.875 -7.125 C 1.863281 -7.113281 1.859375 -7.101562 1.859375 -7.09375 C 1.617188 -6.132812 1.382812 -5.160156 1.15625 -4.171875 C 0.925781 -3.179688 0.707031 -2.207031 0.5 -1.25 C 0.289062 -0.300781 0.101562 0.59375 -0.0625 1.4375 C -0.238281 2.28125 -0.382812 3.03125 -0.5 3.6875 C -0.625 4.34375 -0.710938 4.867188 -0.765625 5.265625 C -0.753906 5.265625 -0.75 5.265625 -0.75 5.265625 C -0.675781 5.296875 -0.625 5.34375 -0.59375 5.40625 C -0.5625 5.46875 -0.554688 5.535156 -0.578125 5.609375 C -0.640625 5.773438 -0.703125 5.925781 -0.765625 6.0625 C -0.835938 6.207031 -0.929688 6.28125 -1.046875 6.28125 C -1.078125 6.28125 -1.113281 6.273438 -1.15625 6.265625 C -1.226562 6.242188 -1.28125 6.1875 -1.3125 6.09375 C -1.351562 6.007812 -1.359375 5.835938 -1.328125 5.578125 C -1.304688 5.328125 -1.25 4.9375 -1.15625 4.40625 C -1 3.4375 -0.757812 2.164062 -0.4375 0.59375 C -0.195312 -0.5 0.046875 -1.613281 0.296875 -2.75 C 0.554688 -3.894531 0.8125 -5 1.0625 -6.0625 C 1.320312 -7.125 1.566406 -8.085938 1.796875 -8.953125 C 1.835938 -9.117188 1.90625 -9.351562 2 -9.65625 C 2.09375 -9.96875 2.195312 -10.296875 2.3125 -10.640625 C 2.425781 -10.992188 2.554688 -11.332031 2.703125 -11.65625 C 2.847656 -11.988281 2.992188 -12.257812 3.140625 -12.46875 C 3.296875 -12.675781 3.453125 -12.796875 3.609375 -12.828125 C 3.765625 -12.847656 3.882812 -12.796875 3.96875 -12.671875 Z M 2.328125 -8.90625 C 2.753906 -9.71875 3.054688 -10.394531 3.234375 -10.9375 C 3.410156 -11.476562 3.515625 -11.867188 3.546875 -12.109375 C 3.421875 -11.929688 3.25 -11.59375 3.03125 -11.09375 C 2.8125 -10.59375 2.578125 -9.863281 2.328125 -8.90625 Z M 2.328125 -8.90625 "/></g></g></g></g><g clip-path="url(#0677a3e0a0)"><g fill="#D4C4A8" fill-opacity="1"><g transform="translate(89.388184, 13.653695)"><g><path d="M 3.96875 -12.671875 C 4.09375 -12.492188 4.097656 -12.144531 3.984375 -11.625 C 3.867188 -11.101562 3.632812 -10.457031 3.28125 -9.6875 C 2.925781 -8.914062 2.457031 -8.0625 1.875 -7.125 C 1.863281 -7.113281 1.859375 -7.101562 1.859375 -7.09375 C 1.617188 -6.132812 1.382812 -5.160156 1.15625 -4.171875 C 0.925781 -3.179688 0.707031 -2.207031 0.5 -1.25 C 0.289062 -0.300781 0.101562 0.59375 -0.0625 1.4375 C -0.238281 2.28125 -0.382812 3.03125 -0.5 3.6875 C -0.625 4.34375 -0.710938 4.867188 -0.765625 5.265625 C -0.753906 5.265625 -0.75 5.265625 -0.75 5.265625 C -0.675781 5.296875 -0.625 5.34375 -0.59375 5.40625 C -0.5625 5.46875 -0.554688 5.535156 -0.578125 5.609375 C -0.640625 5.773438 -0.703125 5.925781 -0.765625 6.0625 C -0.835938 6.207031 -0.929688 6.28125 -1.046875 6.28125 C -1.078125 6.28125 -1.113281 6.273438 -1.15625 6.265625 C -1.226562 6.242188 -1.28125 6.1875 -1.3125 6.09375 C -1.351562 6.007812 -1.359375 5.835938 -1.328125 5.578125 C -1.304688 5.328125 -1.25 4.9375 -1.15625 4.40625 C -1 3.4375 -0.757812 2.164062 -0.4375 0.59375 C -0.195312 -0.5 0.046875 -1.613281 0.296875 -2.75 C 0.554688 -3.894531 0.8125 -5 1.0625 -6.0625 C 1.320312 -7.125 1.566406 -8.085938 1.796875 -8.953125 C 1.835938 -9.117188 1.90625 -9.351562 2 -9.65625 C 2.09375 -9.96875 2.195312 -10.296875 2.3125 -10.640625 C 2.425781 -10.992188 2.554688 -11.332031 2.703125 -11.65625 C 2.847656 -11.988281 2.992188 -12.257812 3.140625 -12.46875 C 3.296875 -12.675781 3.453125 -12.796875 3.609375 -12.828125 C 3.765625 -12.847656 3.882812 -12.796875 3.96875 -12.671875 Z M 2.328125 -8.90625 C 2.753906 -9.71875 3.054688 -10.394531 3.234375 -10.9375 C 3.410156 -11.476562 3.515625 -11.867188 3.546875 -12.109375 C 3.421875 -11.929688 3.25 -11.59375 3.03125 -11.09375 C 2.8125 -10.59375 2.578125 -9.863281 2.328125 -8.90625 Z M 2.328125 -8.90625 "/></g></g></g></g><g fill="#D4C4A8" fill-opacity="1"><g transform="translate(91.442985, 13.653695)"><g><path d="M 3.953125 -3.078125 C 4.023438 -3.046875 4.066406 -2.992188 4.078125 -2.921875 C 4.085938 -2.847656 4.078125 -2.78125 4.046875 -2.71875 C 3.867188 -2.445312 3.648438 -2.144531 3.390625 -1.8125 C 3.128906 -1.476562 2.84375 -1.160156 2.53125 -0.859375 C 2.226562 -0.554688 1.925781 -0.304688 1.625 -0.109375 C 1.320312 0.0859375 1.046875 0.1875 0.796875 0.1875 C 0.691406 0.1875 0.597656 0.171875 0.515625 0.140625 C 0.203125 0.00390625 0.03125 -0.320312 0 -0.84375 C -0.03125 -1.363281 0.078125 -2.097656 0.328125 -3.046875 C 0.335938 -3.117188 0.375 -3.171875 0.4375 -3.203125 C 0.507812 -3.234375 0.578125 -3.242188 0.640625 -3.234375 C 0.710938 -3.210938 0.765625 -3.171875 0.796875 -3.109375 C 0.828125 -3.046875 0.835938 -2.984375 0.828125 -2.921875 C 0.679688 -2.335938 0.585938 -1.878906 0.546875 -1.546875 C 0.515625 -1.210938 0.507812 -0.957031 0.53125 -0.78125 C 0.550781 -0.613281 0.582031 -0.5 0.625 -0.4375 C 0.675781 -0.375 0.707031 -0.34375 0.71875 -0.34375 C 0.832031 -0.289062 1 -0.328125 1.21875 -0.453125 C 1.445312 -0.585938 1.703125 -0.785156 1.984375 -1.046875 C 2.265625 -1.304688 2.546875 -1.601562 2.828125 -1.9375 C 3.109375 -2.28125 3.363281 -2.632812 3.59375 -3 C 3.632812 -3.0625 3.6875 -3.097656 3.75 -3.109375 C 3.820312 -3.128906 3.890625 -3.117188 3.953125 -3.078125 Z M 0.765625 -4.15625 C 0.585938 -4.164062 0.492188 -4.21875 0.484375 -4.3125 C 0.484375 -4.40625 0.523438 -4.5 0.609375 -4.59375 C 0.703125 -4.695312 0.789062 -4.769531 0.875 -4.8125 C 1.019531 -4.851562 1.125 -4.84375 1.1875 -4.78125 C 1.257812 -4.71875 1.289062 -4.632812 1.28125 -4.53125 C 1.28125 -4.4375 1.238281 -4.347656 1.15625 -4.265625 C 1.070312 -4.191406 0.941406 -4.15625 0.765625 -4.15625 Z M 0.765625 -4.15625 "/></g></g></g></g></g></svg>