<svg xmlns="http://www.w3.org/2000/svg" viewBox="0 0 80 80" width="512" height="512">
  <rect width="80" height="80" fill="#1a1209"/>
  <circle cx="40" cy="40" r="36" stroke="#b88a3d" stroke-width="0.6" opacity="0.55" fill="none"/>
  <circle cx="40" cy="40" r="32" stroke="#b88a3d" stroke-width="0.4" opacity="0.4" fill="none"/>
  <g fill="#b88a3d" opacity="0.85">
    <path d="M40 6 L42 9 L40 12 L38 9 Z"/>
    <path d="M74 40 L71 42 L68 40 L71 38 Z"/>
    <path d="M40 74 L42 71 L40 68 L38 71 Z"/>
    <path d="M6 40 L9 42 L12 40 L9 38 Z"/>
  </g>
  <g fill="none" stroke="#c9a45e" stroke-width="1.6" stroke-linecap="round" stroke-linejoin="round">
    <path d="M28 24 L28 52 L40 52"/>
    <path d="M36 56 L36 28 L46 44 L56 28 L56 56"/>
  </g>
  <line x1="26" y1="24" x2="30" y2="24" stroke="#c9a45e" stroke-width="1.4" stroke-linecap="round"/>
  <line x1="34" y1="56" x2="38" y2="56" stroke="#c9a45e" stroke-width="1.4" stroke-linecap="round"/>
  <line x1="54" y1="56" x2="58" y2="56" stroke="#c9a45e" stroke-width="1.4" stroke-linecap="round"/>
</svg>
